<svg xmlns="http://www.w3.org/2000/svg" width="190" height="30.034" viewBox="0 0 190 30.034">
  <g id="logo" transform="translate(-291.432 -291.375)">
    <path id="Tracé_27" data-name="Tracé 27" d="M362.524,311.851a5.9,5.9,0,0,1-1.869-1.3,6,6,0,0,1-1.243-1.951,6.383,6.383,0,0,1-.443-2.417v-.057a6.509,6.509,0,0,1,.425-2.366,6.1,6.1,0,0,1,1.2-1.925,5.982,5.982,0,0,1,1.843-1.3,5.661,5.661,0,0,1,2.327-.481,5.732,5.732,0,0,1,4.166,1.768,6.19,6.19,0,0,1,1.249,1.954,6.546,6.546,0,0,1,.448,2.408v.063a6.324,6.324,0,0,1-.442,2.363A5.931,5.931,0,0,1,369,310.541a5.706,5.706,0,0,1-1.847,1.3,5.94,5.94,0,0,1-4.624.009m8.233-11.617a8.5,8.5,0,0,0-2.608-1.823,8.427,8.427,0,0,0-6.659,0,8.458,8.458,0,0,0-2.646,1.851,8.471,8.471,0,0,0-2.363,5.921v.063a8.623,8.623,0,0,0,.617,3.229,8.262,8.262,0,0,0,1.736,2.663,8.394,8.394,0,0,0,2.609,1.823,8.374,8.374,0,0,0,6.651,0,8.364,8.364,0,0,0,4.391-4.545,8.418,8.418,0,0,0,.624-3.233v-.057a8.422,8.422,0,0,0-.624-3.228,8.216,8.216,0,0,0-1.728-2.665" transform="translate(2.114 0.206)" fill="#fff"/>
    <path id="Tracé_28" data-name="Tracé 28" d="M438.22,299.834l-.025-.045-.13-.154a5.973,5.973,0,0,0-2.094-1.412,7.319,7.319,0,0,0-2.747-.5h-.859a7.309,7.309,0,0,0-2.754.5,6.134,6.134,0,0,0-1.44.825v-1.3l-2.388,1.368v15.17h2.388v-9.543a5.121,5.121,0,0,1,1.149-3.49,4.073,4.073,0,0,1,3.25-1.264h.446a4.055,4.055,0,0,1,3.244,1.264,5.117,5.117,0,0,1,1.152,3.49v9.543H439.8v-9.814a8.226,8.226,0,0,0-.428-2.681,6.1,6.1,0,0,0-1.153-1.961" transform="translate(4.366 0.206)" fill="#fff"/>
    <path id="Tracé_29" data-name="Tracé 29" d="M304.323,310.113a8.249,8.249,0,0,1-1.919,1.533,5.209,5.209,0,0,1-2.658.671,5.571,5.571,0,0,1-2.279-.467,5.82,5.82,0,0,1-1.837-1.3,6.246,6.246,0,0,1-1.266-1.96,7.5,7.5,0,0,1-.235-.752c-.028-.09-.05-.18-.072-.283a6.629,6.629,0,0,1-.146-1.374v-.057a6.6,6.6,0,0,1,.266-1.867c.055-.176.112-.352.177-.528a6.3,6.3,0,0,1,1.216-1.932,5.538,5.538,0,0,1,4.053-1.746,7.15,7.15,0,0,1,.855.06,4.533,4.533,0,0,1,1.806.618,11.134,11.134,0,0,1,1.792,1.415l.247.239,2.164-1.255-.392-.419a14.126,14.126,0,0,0-1.184-1.112,8.958,8.958,0,0,0-1.442-.959,7.692,7.692,0,0,0-1.74-.667l-.054-.014a8.345,8.345,0,0,0-2.023-.234,7.835,7.835,0,0,0-3.255.686,8.274,8.274,0,0,0-2.618,1.856,8.8,8.8,0,0,0-1.727,2.7l-.079.225a8.473,8.473,0,0,0-.539,2.992v.063a8.355,8.355,0,0,0,4.952,7.715,7.741,7.741,0,0,0,3.268.689,7.515,7.515,0,0,0,3.816-.933,11.417,11.417,0,0,0,2.752-2.274l.369-.42-2.007-1.172Z" transform="translate(0 0.206)" fill="#fff"/>
    <path id="Tracé_30" data-name="Tracé 30" d="M345.187,302.5a5.738,5.738,0,0,1,.878,1.48,6.448,6.448,0,0,1,.25.856,6.848,6.848,0,0,1,.2,1.552v.063a6.386,6.386,0,0,1-.441,2.363,5.826,5.826,0,0,1-1.2,1.932,5.924,5.924,0,0,1-1.841,1.305,5.782,5.782,0,0,1-2.194.467,5.237,5.237,0,0,1-2.053-.423,4.848,4.848,0,0,1-1.188-.726l-.083-.063a4.182,4.182,0,0,1-.5-.424,5.847,5.847,0,0,1-1.209-1.932,7.014,7.014,0,0,1-.45-2.562v-.057a7.4,7.4,0,0,1,.431-2.577,5.753,5.753,0,0,1,1.184-1.9,5.036,5.036,0,0,1,1.753-1.178,5.751,5.751,0,0,1,2.094-.409c.09,0,.186.008.309.017l.186.019.107.012a5.625,5.625,0,0,1,1.263.322l.125.04.144.052a5.782,5.782,0,0,1,1.867,1.294,2.521,2.521,0,0,1,.245.307Zm1.415-2.1a8.572,8.572,0,0,0-2.57-1.783,7.142,7.142,0,0,0-.948-.338l-.083-.025a6.156,6.156,0,0,0-.885-.2,3.339,3.339,0,0,0-.354-.057c-.087-.009-.184-.014-.271-.019l-.309-.024c-.086-.005-.17-.012-.3-.017a.761.761,0,0,0-.15-.007,7.509,7.509,0,0,0-2.857.587,7.965,7.965,0,0,0-2.527,1.687,8.49,8.49,0,0,0-1.792,2.661,8.764,8.764,0,0,0-.68,3.52v.063a8.788,8.788,0,0,0,.68,3.529,8.27,8.27,0,0,0,1.792,2.639,6.5,6.5,0,0,0,.549.462l.17.122a7.229,7.229,0,0,0,1.814,1.074,7.614,7.614,0,0,0,2.817.57l.07.008.17-.013.078-.008a5.925,5.925,0,0,0,.669-.045l.444-.064a7.742,7.742,0,0,0,1.847-.558,8.458,8.458,0,0,0,2.618-1.823v2.47l2.392-1.36v-20.7l-2.392-1.374Z" transform="translate(1.347 0)" fill="#fff"/>
    <path id="Tracé_31" data-name="Tracé 31" d="M397.921,314.834l2.156-1.253.227-.144V292.751l-2.383-1.375Z" transform="translate(3.46)" fill="#fff"/>
    <path id="Tracé_32" data-name="Tracé 32" d="M352.031,298.147l-.093-.047-.608-.352v15.5l1.681.975.1.046.614.358v-15.5Z" transform="translate(1.946 0.207)" fill="#fff"/>
    <path id="Tracé_33" data-name="Tracé 33" d="M462.131,298.147l-.1-.047-.615-.352v15.5l1.686.975.1.046.612.358v-15.5Z" transform="translate(5.524 0.207)" fill="#fff"/>
    <path id="Tracé_34" data-name="Tracé 34" d="M421.331,298.147l-.094-.047-.611-.352v15.5l1.679.975.1.046.612.358v-15.5Z" transform="translate(4.198 0.207)" fill="#fff"/>
    <path id="Tracé_35" data-name="Tracé 35" d="M393.112,306.187v.059a7.294,7.294,0,0,1-.436,2.581,5.641,5.641,0,0,1-1.182,1.9,4.967,4.967,0,0,1-1.748,1.181,5.717,5.717,0,0,1-2.085.406c-.1-.006-.2-.006-.316-.02l-.179-.02-.119-.011a6.33,6.33,0,0,1-1.268-.315l-.122-.044-.141-.053a5.708,5.708,0,0,1-1.871-1.293,2.4,2.4,0,0,1-.234-.3l-.137-.173a6.2,6.2,0,0,1-.872-1.483,7.129,7.129,0,0,1-.247-.853,6.693,6.693,0,0,1-.2-1.56v-.061a6.424,6.424,0,0,1,.433-2.361,5.942,5.942,0,0,1,1.194-1.927,5.805,5.805,0,0,1,1.847-1.3,5.726,5.726,0,0,1,2.2-.474,5.324,5.324,0,0,1,2.053.421,5.566,5.566,0,0,1,1.193.727l.093.077a5.284,5.284,0,0,1,.486.415,5.721,5.721,0,0,1,1.207,1.927,6.98,6.98,0,0,1,.452,2.559m0-6.231a5.335,5.335,0,0,0-.563-.462l-.16-.117a7.608,7.608,0,0,0-1.816-1.079,7.729,7.729,0,0,0-2.82-.572l-.053,0a1.064,1.064,0,0,0-.186.016l-.075,0a6.073,6.073,0,0,0-.66.049c-.15.019-.307.043-.455.066a7.636,7.636,0,0,0-1.838.554,8.542,8.542,0,0,0-2.62,1.821V297.78l-2.39,1.337v20.714l2.39,1.372v-9.016a8.477,8.477,0,0,0,2.568,1.774,6.6,6.6,0,0,0,.935.338l.1.029a6.487,6.487,0,0,0,.882.2c.118.022.239.042.351.055.093,0,.2.017.3.021l.249.021c.105.005.2.013.33.018a.852.852,0,0,0,.156,0,7.527,7.527,0,0,0,2.853-.578,7.986,7.986,0,0,0,2.527-1.7,8.322,8.322,0,0,0,1.79-2.651,8.742,8.742,0,0,0,.682-3.528v-.061a8.713,8.713,0,0,0-.682-3.523,8.28,8.28,0,0,0-1.79-2.647" transform="translate(2.861 0.206)" fill="#fff"/>
    <path id="Tracé_36" data-name="Tracé 36" d="M315.238,312.124l-.171.039a.935.935,0,0,1-.179.039c-.078.022-.159.028-.256.045a7.748,7.748,0,0,1-.905.065l-.133,0a5.585,5.585,0,0,1-.56-.044,1.159,1.159,0,0,1-.209-.03l-.058-.008c-.164-.03-.319-.063-.483-.1l-.057-.018-.123-.034-.113-.04-.124-.053a3.832,3.832,0,0,1-.99-.495,3.459,3.459,0,0,1-.351-.325,2.536,2.536,0,0,1-.491-.623,2.2,2.2,0,0,1-.268-.94l-.019-.152-.022-.165v-.054a2.6,2.6,0,0,1,1.121-2.214,5.772,5.772,0,0,1,3.457-.881c.234,0,.451.008.665.024l.22.008a16.085,16.085,0,0,1,1.968.184c.735.125,1.349.249,1.873.374v1.366a3.61,3.61,0,0,1-.178,1.071,5.39,5.39,0,0,1-2.768,2.678,5.332,5.332,0,0,1-.847.287m4.88-11.937a4.931,4.931,0,0,0-.454-.535,6.523,6.523,0,0,0-4.108-1.738l-.193-.018a7.674,7.674,0,0,0-.845-.055,11.05,11.05,0,0,0-3.011.384,16.742,16.742,0,0,0-2.318.879l-.106.05-.183.077-.782.38,2.451,1.41.212-.089a11.423,11.423,0,0,1,1.193-.436,8.627,8.627,0,0,1,2.452-.329c.164,0,.32.017.463.026l.19.017a4.69,4.69,0,0,1,2.748,1.01,2.979,2.979,0,0,1,.541.649,3.774,3.774,0,0,1,.555,1.481,6.359,6.359,0,0,1,.079,1.008v.066c-.37-.087-.754-.163-1.176-.242l-.186-.036-.386-.067c-.243-.036-.511-.058-.779-.084l-.132-.013c-.681-.057-1.3-.086-1.952-.086a10.842,10.842,0,0,0-2.842.344,6.784,6.784,0,0,0-2.247,1.028,5.137,5.137,0,0,0-1.505,1.716,4.994,4.994,0,0,0-.34.9l-.021.088c-.03.1-.058.2-.083.309a5.279,5.279,0,0,0-.1,1.041v.057a4.509,4.509,0,0,0,.591,2.334,5.189,5.189,0,0,0,1.058,1.259l.1.089a2.363,2.363,0,0,0,.342.3l.139.085.271.156a5.576,5.576,0,0,0,.627.355l.125.052c.267.113.5.2.75.278l.116.038.176.041.087.009c.212.063.428.105.636.148.132.017.247.034.379.056.167.02.337.025.561.041l.079,0,.144,0,.053,0a.646.646,0,0,0,.165.005l.057.008a7.909,7.909,0,0,0,3.334-.689,8.128,8.128,0,0,0,1.97-1.221v1.872l2.352-1.364v-8.95a7.959,7.959,0,0,0-.261-2.01,5.964,5.964,0,0,0-.976-2.1" transform="translate(0.514 0.21)" fill="#fff"/>
    <path id="Tracé_37" data-name="Tracé 37" d="M452.909,312.124l-.168.039-.181.039c-.078.022-.158.028-.262.045a7.8,7.8,0,0,1-.908.065l-.131,0a5.566,5.566,0,0,1-.558-.044l-.2-.03-.064-.008c-.163-.03-.321-.063-.477-.1l-.062-.018-.122-.034-.114-.04-.127-.053a3.9,3.9,0,0,1-.988-.495,3.118,3.118,0,0,1-.3-.267l-.053-.052a2.894,2.894,0,0,1-.495-.629,2.355,2.355,0,0,1-.268-.94l-.013-.152-.016-.165v-.054a2.592,2.592,0,0,1,1.114-2.214,5.77,5.77,0,0,1,3.452-.881c.244,0,.452.008.673.024l.217.008a15.545,15.545,0,0,1,1.969.184c.73.131,1.345.249,1.871.374v1.366a3.819,3.819,0,0,1-.174,1.071,6.06,6.06,0,0,1-.925,1.378,5.874,5.874,0,0,1-1.841,1.3,5.418,5.418,0,0,1-.848.287m4.886-11.937a5.117,5.117,0,0,0-.466-.535,6.515,6.515,0,0,0-4.1-1.738l-.19-.015a7.389,7.389,0,0,0-.853-.057,11.047,11.047,0,0,0-3.012.384,16.463,16.463,0,0,0-2.32.879l-.1.05-.183.077-.781.381,2.451,1.409.211-.089a10.674,10.674,0,0,1,1.2-.436,8.552,8.552,0,0,1,2.448-.329c.164,0,.322.017.472.026l.186.017a4.7,4.7,0,0,1,2.742,1.01,3.063,3.063,0,0,1,.536.649,3.734,3.734,0,0,1,.558,1.477,6.4,6.4,0,0,1,.079,1.012v.066c-.37-.087-.758-.163-1.173-.242l-.172-.032c-.137-.027-.273-.05-.4-.071-.234-.036-.5-.058-.77-.084l-.136-.013c-.679-.057-1.3-.086-1.947-.086a10.752,10.752,0,0,0-2.839.344,6.813,6.813,0,0,0-2.256,1.028,5.069,5.069,0,0,0-1.5,1.716,3.87,3.87,0,0,0-.346.915l-.04.118c-.024.089-.044.173-.068.268a5.635,5.635,0,0,0-.1,1.041v.057a4.513,4.513,0,0,0,.6,2.334,5.219,5.219,0,0,0,1.055,1.264l.114.1a3.3,3.3,0,0,0,.327.284l.135.079.07.046.2.114a5.662,5.662,0,0,0,.622.351l.122.052c.26.1.506.2.755.282l.119.034.182.041.073.018c.219.055.43.1.643.139.126.017.246.034.374.056.169.02.335.025.558.041l.079,0,.152,0,.05,0a.644.644,0,0,0,.166.005l.058.008a7.922,7.922,0,0,0,3.332-.689,8.512,8.512,0,0,0,1.966-1.216v1.867l2.351-1.364v-8.95a7.874,7.874,0,0,0-.258-2.009,6.091,6.091,0,0,0-.964-2.1" transform="translate(4.987 0.21)" fill="#fff"/>
    <path id="Tracé_38" data-name="Tracé 38" d="M410.743,299.993a4.493,4.493,0,0,1,3.623,1.646,5.736,5.736,0,0,1,.978,1.749,8.457,8.457,0,0,1,.388,1.619H405.6a5.649,5.649,0,0,1,.119-.6,6.308,6.308,0,0,1,.362-1.108,6.378,6.378,0,0,1,1.134-1.761,4.983,4.983,0,0,1,1.576-1.135,4.7,4.7,0,0,1,1.948-.41m5.506.2a6.983,6.983,0,0,0-5.459-2.467,7.007,7.007,0,0,0-3.075.677,7.534,7.534,0,0,0-2.435,1.813,8.371,8.371,0,0,0-1.62,2.677c-.05.139-.1.277-.142.42l-.024.082a9.268,9.268,0,0,0-.418,2.764v.057a8.954,8.954,0,0,0,.638,3.437,7.9,7.9,0,0,0,1.732,2.665,7.69,7.69,0,0,0,2.562,1.724,8.493,8.493,0,0,0,6.938-.279,11.25,11.25,0,0,0,2.761-2.157l.4-.424-2.045-1.176-.248.247a8.458,8.458,0,0,1-1.883,1.437,5.863,5.863,0,0,1-2.832.628,5.4,5.4,0,0,1-2.01-.37,5.006,5.006,0,0,1-1.7-1.077,6.1,6.1,0,0,1-1.254-1.752,5.852,5.852,0,0,1-.54-1.876h12.565l.059-.39a2.22,2.22,0,0,0,.043-.35v-.319a10.276,10.276,0,0,0-.523-3.305,8.3,8.3,0,0,0-1.492-2.687" transform="translate(3.628 0.206)" fill="#fff"/>
    <path id="Tracé_39" data-name="Tracé 39" d="M332.9,297.846h-.456l-.141.008-.065,0-.137-.006a8.034,8.034,0,0,0-3.334.687,8.506,8.506,0,0,0-2.614,1.819v-2.6l-.59.337-1.505.869-.3.171v14.117l2.392,1.385V310.1h0v-2.635a11.335,11.335,0,0,1,.107-1.478,6.323,6.323,0,0,1,.414-2.108,5.883,5.883,0,0,1,1.2-1.92,5.72,5.72,0,0,1,1.842-1.3,5.544,5.544,0,0,1,2.713-.457l.491.029v-1.919Z" transform="translate(1.05 0.207)" fill="#fff"/>
    <path id="Tracé_40" data-name="Tracé 40" d="M475.726,297.846h-.456l-.14.008-.066,0-.139-.006a8.038,8.038,0,0,0-3.332.687,8.544,8.544,0,0,0-2.617,1.819v-2.6l-.587.337-1.5.869-.3.171v14.117l2.389,1.385V310.1h0v-2.635a12.347,12.347,0,0,1,.112-1.478,6.3,6.3,0,0,1,.411-2.108,5.908,5.908,0,0,1,1.2-1.92,5.625,5.625,0,0,1,4.554-1.76l.487.029v-1.919Z" transform="translate(5.691 0.207)" fill="#fff"/>
  </g>
</svg>
